# xmcd
#
# Track frame offsets:
#	182
#	13507
#	28337
#	43942
#	63157
#	77952
#	93130
#	110190
#	125435
#	139617
#
# Disc length: 2073 seconds
#
# Revision: 5
# Processed by: cddbd v1.5.2PL0 Copyright (c) Steve Scherf et al.
# Submitted via: EZCDAudioConverter 6.0.2.1
#
DISCID=8508170a
DTITLE=BlackHawk - Strong Enough
DYEAR=1995
DGENRE=Country
TTITLE0=Big Guitar
TTITLE1=Like There Aint No Yesterday
TTITLE2=Cast Iron Heart
TTITLE3=I'm Not Strog Enough To Say No
TTITLE4=Almost A Memory Now
TTITLE5=King Of The World
TTITLE6=Bad Love Gone Good
TTITLE7=Any Man With A Heartbeat
TTITLE8=A Kiss Is Worth A Thousand Words
TTITLE9=Hook, Line And Sinker
EXTD=
EXTT0=
EXTT1=
EXTT2=
EXTT3=
EXTT4=
EXTT5=
EXTT6=
EXTT7=
EXTT8=
EXTT9=
PLAYORDER=
